<svg xmlns="http://www.w3.org/2000/svg" viewBox="0 0 544.11 482.91"><defs><style>.cls-1{fill:#fff;}.cls-2{fill:#ffdd2d;}</style></defs><g id="Слой_2"><g id="Слой_1-2"><path class="cls-1" d="M537.05,225.89l7.06-22.47-23.37.73a55.31,55.31,0,0,1-30.24-10.44c1,.1,2.07.24,3.13.24,14.33,0,28.19-8.57,33.75-20.83l10-22.15a183.42,183.42,0,0,1-24.11-1.42c-.11,0-9.18-1.17-19.69-11.83C486.1,130.08,476.78,126,466.68,126a39,39,0,0,0-11.76,1.86,40.79,40.79,0,0,0,1.32-5.5C459.46,101.66,446,85.84,446,85.86L428.46,64.24l-10.89,25.4c0,.08-2.79,6-7.72,8.94A47.12,47.12,0,0,0,396.93,74.7C382.23,59.57,364.34,57.32,355,57.32a53.08,53.08,0,0,0-8.18.59l-21.21,4.14a71.78,71.78,0,0,1,8.59-20.28l11.7-18.12L316.43,27,307,7.18l-18.15,9.3L272.1,0,255.35,16.48l-18.22-9.3L227.76,27l-29.43-3.33,11.73,18.12A71.47,71.47,0,0,1,218.63,62l-20.24-4L197.7,58a53.7,53.7,0,0,0-8.45-.63c-9.36,0-27.25,2.27-41.91,17.38a47.23,47.23,0,0,0-13,23.88c-4.89-2.87-7.61-8.73-7.61-8.73L115.86,64.3,98,86.06c-2.18,2.82-13,17.68-10,36.37a46.54,46.54,0,0,0,1.33,5.48,38.8,38.8,0,0,0-11.75-1.86c-10.09,0-19.42,4-27,11.69-10.46,10.62-19.5,11.81-19.42,11.81A139,139,0,0,1,6.86,151l10,22.15C22.41,185.42,36.29,194,50.6,194c1.08,0,2.12-.14,3.18-.24a55.45,55.45,0,0,1-30,10.46L0,203.42l7.21,22.45c3.62,11.57,15.73,30.74,38.93,32.81C43.62,269.2,38,281,25.73,286L8,293.3,17.67,310c5.45,9,18.26,19.58,36.49,19.58a56.77,56.77,0,0,0,11.42-1.17,127.18,127.18,0,0,0,3.5,12.34c5.44,16.06.76,27.26.7,27.38L61,386.39l19.54,5.11a55.18,55.18,0,0,0,13.54,1.68,41.71,41.71,0,0,0,9.57-1.05,43.08,43.08,0,0,0,6.55-2.08,58.85,58.85,0,0,0,9.18,12.3c12.52,12.76,30.25,19.23,52.72,19.23h.08l16-.2L155.1,435.05l25.16,12.08c9.14,4.43,20,9.67,31,13.67l-3.14,8.53,8.67,3.93c.78.34,17.45,7.77,45.17,9.34,0,0,6.7.31,10.38.31s10.3-.33,10.3-.33c27.54-1.62,44.09-9,44.86-9.32l8.69-3.94L333,460.76c11.36-4.13,22.59-9.57,31.34-13.82L389.07,435l-33-13.69,16.1.2c22.49,0,40.24-6.47,52.74-19.26A59.64,59.64,0,0,0,434.06,390a42.63,42.63,0,0,0,6.57,2.08,41.35,41.35,0,0,0,9.55,1.05,57.12,57.12,0,0,0,13.39-1.64l19.62-5.15-8.55-17.88c-.2-.47-4.88-11.65.55-27.73a124.6,124.6,0,0,0,3.48-12.34,56.21,56.21,0,0,0,11.5,1.17,42.67,42.67,0,0,0,36.52-19.76l9.56-16.55L518.53,286c-12.32-5.07-17.9-16.87-20.4-27.36C521,256.71,533.3,237.54,537.05,225.89ZM220.17,69.78l-.24.06.2-.26Z"/><path class="cls-1" d="M272.12,68.79c-18.77,0-32.83,6.13-35.91,13.31l35.91,14.08L308,82.1C305,74.92,290.91,68.81,272.12,68.79Z"/><path class="cls-1" d="M272.48,441.46h-.71c-11.38.08-27-2.24-34.58-4.43l-9.08,24.42c6,2.12,26.26,6.17,44,6.17s38-4.07,44-6.17L307.07,437C299.49,439.24,283.86,441.54,272.48,441.46Z"/><path class="cls-1" d="M341.18,417.19c-6.76,3.8-21.84,9.51-30.61,12.16l7.37,20.16a184.66,184.66,0,0,0,34-12.6l-15.29-5.05Z"/><path class="cls-1" d="M203.08,417.19l4.52,14.67-15.31,5.05a185.52,185.52,0,0,0,34,12.6l7.37-20.16C224.94,426.7,209.84,421,203.08,417.19Z"/><path class="cls-1" d="M272.12,45.45c14.15,0,28,3.36,38.69,9.26A92.67,92.67,0,0,1,315,43.39l-4,.48-4.24.45L305,40.49l-5.39-11.32-9.83,5.09-3.83,2-3-3L272.16,22.69,261.5,33.21l-3.06,3-3.83-2-9.89-5.09-5.33,11.32-1.83,3.83-4.24-.45-4-.48a97.44,97.44,0,0,1,4.2,11.32C244.17,48.81,258,45.45,272.12,45.45Z"/><path class="cls-1" d="M488.1,176.36a17.27,17.27,0,0,0,5.56.91c8,0,15.73-5.14,18.4-11,0,0-14.68-.89-30.45-16.81-5-5.15-10.34-6.69-14.9-6.69a23.7,23.7,0,0,0-12.4,3.72C473.36,156.54,477.25,172.72,488.1,176.36Z"/><path class="cls-1" d="M50.59,177.27a16.84,16.84,0,0,0,5.51-.91C67,172.72,70.9,156.54,90,146.46a23.74,23.74,0,0,0-12.37-3.72c-4.58,0-9.9,1.54-14.94,6.69-15.76,15.92-30.43,16.81-30.43,16.81C34.83,172.13,42.59,177.27,50.59,177.27Z"/><path class="cls-1" d="M493.27,242.11c.33,0,.61,0,1,0,20,0,26.74-21.26,26.74-21.26h-.38a72.52,72.52,0,0,1-54.35-27.36c-13.82-17.44-25.14-32.77-47.51-38.8l-2.19-.38-.49-2.23c-.61-3.4,1.73-6.57,7-10C454,122,433,96.4,433,96.4s-8.81,20.49-28.54,20.49l-1.46,0a41,41,0,0,1-6.57-.67l-3.65-.71s5.62-15.19-7.94-29.14A41.12,41.12,0,0,0,355,74a33.28,33.28,0,0,0-5.92.46C355.9,83.35,360.83,98,353,107.1c-6.8,7.79-23.41,8.17-23.41,19.78,0,4.91,4.62,10.66,12.93,15.82,25,15.63,49.76,36.37,60.06,64.15,12.89,34.67-1.63,57.67-22.35,70.86a29.25,29.25,0,0,0,15.92,6.69c1.91.19,3.79.27,5.54.27,19.88,0,30.16-9.27,30.16-9.27a51.91,51.91,0,0,1-12.05,24.7c-9.54,11-22.08,17.44-41.2,17.72,0,0-.61,8.82,7.86,16.44,5.42,4.82,17.93,6.39,17.93,6.39s-23.42,4.72-26,39.1c-1.4,18.63-6.19,25.1-6.19,25.1h.43c54.37,0,53-46.34,53-46.34a26.3,26.3,0,0,0,19,17.3,22.58,22.58,0,0,0,5.66.67,39.3,39.3,0,0,0,9.12-1.14s-7.94-16.64-.06-39.92c6.53-19.32,5.47-33.64,5.47-33.64s7.33,11,25.49,11.1h.18a25.58,25.58,0,0,0,21.72-11.39c-36.25-14.94-32.67-63.2-32.67-63.2S484.09,241.77,493.27,242.11Zm-10.91,50.4c-14.74-7.22-24.06-26.39-26.32-33.31-2.44,38-21.12,64.42-43,89.83a81.05,81.05,0,0,0-15.29,26s2.18-14.5,12-26.32c20.37-24.33,39.73-54.61,41.17-89.62,1-24.43-5.33-44.26-15.2-60.58,5.52,17,4.74,37.85-14,57.28,0,0,37.31-44.43-14.86-90-20.89-17.34-43.72-28-55.49-35.62,42.5,13.77,63.24-1.4,63.24-1.4-13.57,11.69-31.14,11.49-42,9.81,2.95,1.44,6,2.93,9.34,4.69,35.83,19.34,68,51.16,73.52,95.23v-.34C463.82,281.41,482.36,292.51,482.36,292.51Z"/><path class="cls-1" d="M139.9,340.65s12.52-1.55,17.93-6.39c8.45-7.62,7.86-16.44,7.86-16.44-19.14-.26-31.65-6.74-41.26-17.7a52.37,52.37,0,0,1-12-24.7s10.28,9.27,30.15,9.27c1.79,0,3.64-.08,5.55-.27a29.23,29.23,0,0,0,15.94-6.69c-20.72-13.19-35.25-36.21-22.39-70.88,10.32-27.76,35.09-48.52,60.07-64.15,8.3-5.16,12.92-10.88,12.92-15.82,0-11.61-16.59-12-23.39-19.78-7.87-9.06-2.93-23.77,3.87-32.61a32.61,32.61,0,0,0-5.9-.46,41.12,41.12,0,0,0-29.82,12.32c-13.6,14-8,29.14-8,29.14l-3.64.71a41.46,41.46,0,0,1-6.58.67l-1.44,0c-19.77,0-28.54-20.47-28.54-20.47S90.34,122,121.17,142.11c5.32,3.44,7.64,6.62,7,10l-.49,2.23-2.24.38c-22.33,6-33.67,21.36-47.49,38.8a72.45,72.45,0,0,1-54.3,27.34h-.41S30.05,242.13,50,242.13c.33,0,.61,0,1,0,9.18-.32,13.9-3.82,13.9-3.82s3.54,48.24-32.67,63.2a25.58,25.58,0,0,0,21.72,11.39h.19c18.17-.1,25.48-11.1,25.48-11.1S78.53,316.1,85,335.42c7.88,23.28,0,39.92,0,39.92a39.35,39.35,0,0,0,9.1,1.14,22.21,22.21,0,0,0,5.64-.67,26.35,26.35,0,0,0,18.95-17.3s-1.38,46.34,53,46.34h.39s-4.76-6.47-6.15-25.1C163.33,345.37,139.9,340.65,139.9,340.65ZM131.17,349c-21.84-25.41-40.51-51.8-43-89.83-2.26,6.9-11.54,26.09-26.28,33.31,0,0,18.52-11.1,26.85-54.36v.34c5.52-44.05,37.7-75.89,73.54-95.23,3.28-1.78,6.39-3.27,9.32-4.69-10.89,1.68-28.45,1.88-42-9.81,0,0,20.74,15.17,63.22,1.4-11.76,7.58-34.58,18.28-55.47,35.62-52.18,45.55-14.85,90-14.85,90-18.77-19.46-19.52-40.27-14-57.28-9.89,16.34-16.2,36.15-15.18,60.58,1.42,35,20.78,65.29,41.11,89.62,9.83,11.8,12.05,26.32,12.05,26.32A81.91,81.91,0,0,0,131.17,349Z"/><path class="cls-1" d="M231.92,171.24c.9.95,1.77,2,2.61,3,.2.24.38.47.59.75.77,1,1.57,2.12,2.32,3.24.16.22.32.48.51.74.91,1.38,1.77,2.79,2.62,4.25,7.84,13.45,20.4,21.48,31.53,21.5s23.67-8,31.55-21.5c.88-1.49,1.75-2.95,2.67-4.31.14-.2.28-.38.4-.58.78-1.16,1.59-2.29,2.45-3.38l.5-.65c.88-1.07,1.78-2.12,2.69-3.09.17-.17.29-.31.43-.43a32.6,32.6,0,0,1,15-8.88L325,160.32h-.16l-11-6.38-11.34-6.45-30.29,16.38-.08-.06-.06.06-30.31-16.38-11.31,6.43-11.06,6.37h-.12l-2.81,1.6a32.61,32.61,0,0,1,15,8.84C231.62,170.89,231.74,171.08,231.92,171.24Zm27.93-1.32h25.62v8.74c-3-3.66-8.87-2.91-8.87-2.91v12.6s.22,6.19,2.4,8.88H266.32c2.22-2.67,2.42-8.88,2.42-8.88v-12.6s-5.84-.75-8.89,2.91Z"/><path class="cls-1" d="M269.5,153V101.82l-32.78-11,8.66,49.57Zm-7.05-38.59v8.21l-1.58-.73c-.09-.06-2.41-.58-6.48-3.78-6.72-5.18-6.84-10-6.84-10Z"/><path class="cls-1" d="M298.89,140.35l8.61-49.57-32.75,11V153Zm-17.1-26,14.9-6.23s-.12,4.77-6.86,9.95a20.44,20.44,0,0,1-6.47,3.79l-1.59.72v-8.23Z"/><path class="cls-1" d="M223.15,271.56a29.13,29.13,0,0,0,9,1.4c.08-.25.18-.55.28-.91a16.33,16.33,0,0,0,.47-1.8,50.91,50.91,0,0,0,.79-8.11,11.37,11.37,0,0,1-4.29-4.51c-1.22-2.55-2.95-3.73-5.5-3.73-3.29,0-6.84,2-8.34,2.9C214.4,263.86,219.63,270.27,223.15,271.56Z"/><path class="cls-1" d="M295.63,244.41c-6.08,6.58-18,18-18.58,18.61l-.71.73-37.64-.59a37.76,37.76,0,0,1-1.22,9.17c-.1.38-.2.79-.3,1.19l44.78,8c4.66-3.24,17.48-12.54,22.45-16.18a21.54,21.54,0,0,1-3.16-15.88A22.77,22.77,0,0,1,295.63,244.41Z"/><path class="cls-1" d="M300.74,199.43c-8.68,8.56-17,11.72-24.43,12.45a39.42,39.42,0,0,1-4.09.22H272a40,40,0,0,1-4.12-.22,35.31,35.31,0,0,1-4-.63,15.15,15.15,0,0,0,.66,9.75c1.56,3.46,4.76,6,9.42,7.72l1.57.61,0,1.68a15.53,15.53,0,0,0,12.31,14.4c2-2,3.73-3.8,5-5.3-2.44-5.7-1.16-11.53,2.38-14.38-.16.61-1.71,14.89,9.81,20.19l1.89.89-.57,2c-.18.61-4,14.42,9.92,19.56l2.46.93-1.1,2.38c-.24.53-5.72,13.07,7.16,20.19H352.8V269.82c-9.93-1.21-14.14-9.14-15.22-14.76-4.62-.79-8.21-2.77-10.65-6-5.86-7.66-.81-14.68-.75-15.07,0,.06,0,7.55,4.64,12.16a14.45,14.45,0,0,0,9.16,4.33l2,.18.19,2.06c0,.45,1.16,10.56,10.62,12.16l0-45c0-7,2.06-14,4.52-20.47H300.74Z"/><path class="cls-1" d="M225.53,220.06l-.75,28.68,3.28.49,8-27.51L232,213.26Z"/><path class="cls-1" d="M314,351.6a3.72,3.72,0,0,1,.79.1c5,1.41,6.25,19.29,15,20.89a11.33,11.33,0,0,0,2.34.23c2.53,0,4-1.08,5.66-3,0,0-4.39-6.88-7.69-11.51-4.38-6.06-7.78-13.41-15.92-13.41-.18,0-.43,0-.63,0a8.12,8.12,0,0,0-4.33,1.44,17,17,0,0,0-9.16-2.77c-5.11,0-9.08,2.32-11.06,2.32h-.08l-18.2-1.78c-2.84-.26-5.08-3.11-5.9-4.22-.2-.31-.3-.49-.3-.49,0-.48,0-1,0-1.43-.61-14.79-12.13-21.12-16.23-21.22,0,0,.49-2.81-.63-3.89l-4,4.84-13.17-6.57,9.39,10.9-8,8.88a2.45,2.45,0,0,0-.47,2.95l3.44,3,4.36-2.63a2,2,0,0,1,1.09-.2c1.21,0,3,.31,4.65.31s3.31-.39,3.5-2.05c-.55,5.48-5.66,15-2.3,22.49l2.48,5.65-16.08-2.31L225,370.81c-2.32,4.21-2.69,8.76-.45,11.23l2.81,3.5s4-4.17,4.84-6.9l-1.28-1.4a2.68,2.68,0,0,1-.36-3.49l4.72-7.79,19,4.45,1-1.7a5.54,5.54,0,0,1,5.17-2.77,16.74,16.74,0,0,1,2.58.24,82.18,82.18,0,0,0,15.12,1.62c6.38,0,12.68-1.13,16-4.88,6.88,10.14,20.83,11.76,19.73,16.89l-3.67,17.36c2.43-.1,4.77-.27,7-.57l3.48-18.06c.39-2,.76-4.61.76-4.61-1.34-1.36-4.6-4.23-6.43-7.71-2.47-4.69-1.12-7.14-3.42-13.25A3.16,3.16,0,0,1,314,351.6Zm-71-25.37a1.63,1.63,0,0,1-1.57-1.74,1.66,1.66,0,1,1,1.57,1.74Z"/><path class="cls-1" d="M217,368s6.29-2.57,6.86-4.41l-.83-2.08c-.59-1.36-.51-2.83.63-3.64l6.8-4.68,11.36,2.17a9.45,9.45,0,0,1-1.85-6l-10.83-2.28-10.22,6.18a9.84,9.84,0,0,0-3.26,11.74Z"/><path class="cls-1" d="M297.26,397.43c2-.08,4.28-.12,6.74-.12,0,0,5.84-17,6.17-17.52a141.73,141.73,0,0,1-12.7-6.65c1.73,2.56,5.94,5.52,5.1,7.78Z"/><path class="cls-2" d="M352.87,296.78H191.4v60.36c0,24.68,18,40.13,44.49,40.13,22.17,0,28,.85,36.25,9,5.68-5.62,10.38-7.73,20-8.52l.23-.93,5.08-15.63c-.28-.34-8.61-9.75-8.61-9.75-3.29,1.09-6.06,1.27-10.72,1.27a88.3,88.3,0,0,1-16-1.63,7.18,7.18,0,0,0-1.69-.19c-.71,0-.78.06-1,.41l-1,1.66-1.85,3-3.48-.79-15.49-3.62L235.53,375l.32.36,1.89,2.07-.83,2.69c-1.14,3.52-4.85,7.62-6,8.76L227.08,393l-3.52-4.43-2.65-3.29c-2.79-3.1-3.44-7.85-1.87-12.83a.23.23,0,0,1-.16.06l-4.38,1.8-2-4.24-1.38-3a14.6,14.6,0,0,1,4.91-17.72l12.47-7,11.87,2.33c.29-1.13.71-5.18,1.06-6.21-.23,0-.45-.08-.67-.08l-6.84,2.53-6.6-4.53s-2.58-2.47-.24-4.94l6.39-9.61-16.18-20.18,24.87,10.15,1.65-2,3.36-4,3.8,3.6a7.22,7.22,0,0,1,2,3.57c6.86,2.66,19.13,10.48,20.21,23.21l-3.85,1.53v.1a4.58,4.58,0,0,0,1.84,1.5l17.74,1.74c.45-.08,1-.28,1.65-.46a28.77,28.77,0,0,1,9.45-1.83,21.82,21.82,0,0,1,9.26,2.11,14.05,14.05,0,0,1,4-.81l.85,0c9.51,0,14.23,7.06,18,12.68.63,1,1.26,1.9,1.91,2.81,3.32,4.65,7.65,11.47,7.84,11.75l2,3-2.4,2.77a11.88,11.88,0,0,1-9.38,4.61,17.35,17.35,0,0,1-3.22-.32,14.78,14.78,0,0,1-2.83-.85c-.14.93-.33,2-.51,3l-3.11,16.14c18.62-4.55,30.45-18.53,30.45-38.51Z"/><path class="cls-2" d="M191.4,291.93H317a19.92,19.92,0,0,1-4.58-19.88A21.39,21.39,0,0,1,307.7,269c-4.9,3.6-19.88,14.44-23.79,17.16l-.84.56-49.27-8.86h-1a42,42,0,0,1-4.8-.26,4.79,4.79,0,0,1-4.65,3.72,3.71,3.71,0,0,1-.79-.08,4.74,4.74,0,0,1-3.15-1.94,4.63,4.63,0,0,1-.86-3.6l.18-1.05c-5.08-3.56-9.77-11.51-7.69-19.89l.2-.89.72-.5c.1-.08.95-.65,2.22-1.38l-3.59-.54a2.46,2.46,0,0,1-2-2.79,2.42,2.42,0,0,1,2.81-2l8.52,1.34.78-29.86,12.7-13.35,7.92,16.57L232.92,250l7.53,1.17a2.42,2.42,0,0,1-.38,4.82,2.48,2.48,0,0,1-.39,0l-6.13-1c.08.18.21.28.29.48a6.52,6.52,0,0,0,2.95,2.71l37.57.59c1.59-1.54,5.54-5.38,9.59-9.45a20.17,20.17,0,0,1-13.17-16.66c-5.17-2.19-8.73-5.46-10.71-9.73a20.36,20.36,0,0,1-.91-13.13c-5-1.82-10.28-5.14-15.65-10.43H186.92c2.42,6.47,4.48,13.48,4.48,20.46Z"/><path d="M243.11,323a1.63,1.63,0,1,0-.18,3.25,1.65,1.65,0,0,0,1.77-1.52A1.68,1.68,0,0,0,243.11,323Z"/><path d="M352.64,432.42l-9.3-3.54,2.56-9.55,2.83-10.41A221.25,221.25,0,0,1,309,424.47c-6.6,1.88-11.58,2.73-11.58,2.73v7.08a168.32,168.32,0,0,1-25,2.14h-.71a168.1,168.1,0,0,1-25-2.14V427.2s-5-.85-11.58-2.73a220.54,220.54,0,0,1-39.7-15.55l2.79,10.41,2.63,9.55-9.32,3.54-10.34,3.84c11.86,5.69,28.29,14,43.33,18.06L221.05,464s19.07,8.64,50.84,8.72v0h.45v0c31.82-.08,50.87-8.72,50.87-8.72l-3.57-9.63c15.05-4.08,31.51-12.37,43.32-18.06Zm-160.35,4.49,15.3-5.06-4.51-14.66c6.73,3.8,21.86,9.51,30.61,12.16l-7.39,20.16A188.5,188.5,0,0,1,192.29,436.91Zm79.85,30.7c-17.77,0-38.06-4.06-44-6.16L237.19,437c7.53,2.18,23.2,4.51,34.58,4.43h.71c11.38.08,27-2.25,34.59-4.43l9.05,24.42C310.16,463.57,289.89,467.61,272.14,467.61Zm45.8-18.1-7.37-20.16c8.77-2.65,23.85-8.36,30.61-12.16l-4.5,14.66L352,436.91A187.61,187.61,0,0,1,317.94,449.51Z"/><path d="M272.12,51.36c18.93,0,34.07,6.23,42.44,12.88,0,0,2.48-14.87,11-28L310.28,38l-8-16.85L287,29,272.12,14.36,257.3,29,242,21.12,234,38l-15.24-1.72c8.49,13.12,11,28,11,28C238.11,57.59,253.21,51.36,272.12,51.36ZM233.3,43.87l4.24.45,1.83-3.83,5.33-11.32,9.89,5.07,3.83,1.95,3.05-3,10.67-10.51,10.68,10.51,3.06,3,3.82-1.95,9.83-5.07,5.4,11.32,1.79,3.83,4.23-.45,4-.48a95.42,95.42,0,0,0-4.19,11.32c-10.66-5.9-24.55-9.26-38.69-9.26s-28,3.36-38.65,9.26a97.94,97.94,0,0,0-4.2-11.32Z"/><path d="M494.21,248.62c24.48,0,32.67-24.75,33-25.81L530,214.1l-9.18.28h0a65.85,65.85,0,0,1-49.4-24.9l-1.81-2.24c-12.52-15.82-24.39-30.85-45.6-37.71a22,22,0,0,1,2.69-2c11.26-7.36,17.81-16.3,19.46-26.68,2.4-15.61-7.61-28-8.06-28.56l-6.82-8.37-4.25,9.93c-.29.63-7.45,16.53-22.52,16.53H403.3c-1-.07-2-.11-3-.19.53-7.1-.77-18.08-10.78-28.38-12-12.39-26.81-14.25-34.55-14.25a43.88,43.88,0,0,0-7.16.54l-10.3,2,6.35,8.32c5,6.41,9.51,18.24,4.15,24.43-1.71,2-5.23,3.56-8.61,5.16-6.94,3.17-16.4,7.58-16.4,18.83,0,7.28,5.68,14.89,16,21.36,30.49,19.05,49.29,38.93,57.41,60.88,12.56,33.76-3.82,53-19.74,63.15l-7.14,4.57,6.24,5.7a36.18,36.18,0,0,0,19.79,8.4c2.14.14,4.19.26,6.11.26a63.29,63.29,0,0,0,18.42-2.65,47.4,47.4,0,0,1-5.21,7.32c-9.1,10.48-20.3,15.25-36.4,15.5l-6,.1-.47,6c-.06,1.2-.51,12.26,10,21.67a24.31,24.31,0,0,0,5.6,3.64c-7.14,6.39-14.41,17.51-15.81,36.58-1.18,15.92-5,21.81-5,21.87l-6.62,10,11.95.16c19.74,0,34.87-5.42,45.35-16.14a51.12,51.12,0,0,0,11.83-19.86A32,32,0,0,0,450.14,383a47.86,47.86,0,0,0,10.77-1.3l7.63-2-3.38-7.08c-.24-.57-6.61-14.77.25-35a114.9,114.9,0,0,0,5.19-22.72,42.05,42.05,0,0,0,19.56,4.57,32.45,32.45,0,0,0,27.6-14.6l3.72-6.43-6.9-2.83c-22.51-9.29-27.5-34.23-28.49-47.74a43.41,43.41,0,0,0,7,.83Zm17.85,52.87a25.58,25.58,0,0,1-21.72,11.39h-.18c-18.16-.1-25.49-11.1-25.49-11.1s1.06,14.32-5.49,33.63c-7.88,23.28.06,39.93.06,39.93a39.74,39.74,0,0,1-9.12,1.13,22.57,22.57,0,0,1-5.66-.66,26.3,26.3,0,0,1-18.95-17.3s1.41,46.34-53,46.34h-.43s4.78-6.47,6.21-25.1c2.58-34.38,26-39.1,26-39.1s-12.49-1.55-17.91-6.39c-8.47-7.62-7.88-16.44-7.88-16.44,19.14-.27,31.65-6.74,41.2-17.72a52.18,52.18,0,0,0,12.05-24.7s-10.28,9.27-30.17,9.27c-1.75,0-3.62-.09-5.53-.27a29.34,29.34,0,0,1-15.92-6.69c20.7-13.19,35.23-36.21,22.35-70.88-10.32-27.77-35.11-48.52-60.06-64.15-8.31-5.16-12.93-10.89-12.93-15.82,0-11.61,16.61-12,23.43-19.78,7.86-9.06,2.93-23.77-3.89-32.61A33.28,33.28,0,0,1,355,74a41.23,41.23,0,0,1,29.84,12.31c13.58,14,7.94,29.15,7.94,29.15l3.64.71a41.21,41.21,0,0,0,6.58.65l1.46,0c19.73,0,28.54-20.49,28.54-20.49s21,25.62-9.89,45.69c-5.31,3.44-7.65,6.61-7,10l.48,2.23,2.2.38c22.37,6,33.69,21.36,47.51,38.79a72.51,72.51,0,0,0,54.35,27.37H521s-6.77,21.26-26.74,21.26c-.33,0-.61,0-1,0-9.18-.33-13.88-3.82-13.88-3.82S475.81,286.53,512.06,301.49Z"/><path d="M451.2,152.21c9.14,4.83,14.45,11.3,19.11,17s8.94,11,15.73,13.24a23.45,23.45,0,0,0,7.6,1.22c10.22,0,20.47-6.21,24.36-14.81l3.91-8.61-9.47-.57c-.44,0-12.62-1.11-26.17-14.89-5.58-5.64-12.32-8.61-19.58-8.61a31.08,31.08,0,0,0-16.18,4.85l-8.72,6.09Zm15.51-9.47c4.56,0,9.87,1.54,14.9,6.69,15.77,15.92,30.45,16.81,30.45,16.81-2.67,5.87-10.4,11-18.4,11a17.1,17.1,0,0,1-5.56-.92c-10.85-3.64-14.74-19.82-33.81-29.89A23.81,23.81,0,0,1,466.71,142.74Z"/><path d="M455.47,238.15v.32C450,194.42,417.78,162.6,382,143.24c-3.31-1.75-6.37-3.25-9.34-4.69,10.91,1.68,28.48,1.88,42-9.81,0,0-20.74,15.17-63.24,1.4,11.77,7.58,34.62,18.28,55.49,35.62,52.17,45.55,14.84,90,14.84,90,18.74-19.43,19.52-40.27,14-57.28,9.87,16.33,16.18,36.15,15.2,60.58-1.44,35-20.8,65.29-41.17,89.63-9.79,11.81-12,26.31-12,26.31a81.13,81.13,0,0,1,15.28-26c21.85-25.4,40.51-51.8,42.95-89.83,2.26,6.9,11.56,26.1,26.32,33.32C482.36,292.52,463.82,281.41,455.47,238.15Z"/><path d="M177.45,401.15c0-.06-3.8-5.95-5-21.86-1.42-19.08-8.67-30.2-15.83-36.59a22.08,22.08,0,0,0,5.6-3.65c10.52-9.4,10.07-20.47,10-21.66l-.41-6-6-.1c-16.06-.27-27.28-5-36.38-15.5a48.8,48.8,0,0,1-5.21-7.32,63,63,0,0,0,18.4,2.65c2,0,4-.12,6.11-.26a36.28,36.28,0,0,0,19.81-8.4l6.24-5.7-7.14-4.57c-16-10.16-32.3-29.41-19.76-63.15,8.12-22,26.9-41.83,57.44-60.88,10.29-6.47,15.93-14.08,15.93-21.36,0-11.25-9.44-15.68-16.38-18.83-3.38-1.6-6.9-3.2-8.61-5.16-5.38-6.17-.84-18,4.13-24.43l6.39-8.32-10.34-2a43.88,43.88,0,0,0-7.16-.54c-7.74,0-22.47,1.86-34.52,14.25-10,10.32-11.36,21.3-10.85,28.38-1,.08-2,.12-3,.19h-1.1c-15.11,0-22.25-15.9-22.54-16.53L113,83.9l-6.88,8.37c-.39.51-10.44,13-8,28.56,1.63,10.38,8.18,19.32,19.44,26.68a20.5,20.5,0,0,1,2.69,2c-21.19,6.86-33,21.91-45.56,37.73l-1.81,2.24a65.89,65.89,0,0,1-49.44,24.9l-9.22-.28L17,222.81c.32,1.06,8.49,25.81,33,25.81l1.18,0a42.55,42.55,0,0,0,7-.83c-1,13.49-6,38.43-28.54,47.74l-6.88,2.83,3.72,6.43a32.45,32.45,0,0,0,27.65,14.6,42.12,42.12,0,0,0,19.51-4.57,114.3,114.3,0,0,0,5.2,22.72c6.85,20.26.46,34.46.22,35l-3.38,7.08,7.65,2a47.86,47.86,0,0,0,10.77,1.3A32.08,32.08,0,0,0,115,375.32a51.06,51.06,0,0,0,11.81,19.86c10.5,10.72,25.61,16.14,45.35,16.14l12-.16Zm-5.78,3.7c-54.37,0-53-46.34-53-46.34a26.3,26.3,0,0,1-19,17.3,22.2,22.2,0,0,1-5.64.66,39.45,39.45,0,0,1-9.1-1.13s7.9-16.64,0-39.93c-6.51-19.31-5.45-33.63-5.45-33.63s-7.31,11-25.49,11.1H53.9a25.58,25.58,0,0,1-21.72-11.39c36.23-14.94,32.67-63.2,32.67-63.2s-4.7,3.48-13.9,3.82c-.33,0-.63,0-1,0-20,0-26.74-21.26-26.74-21.26h.4A72.45,72.45,0,0,0,78,193.51c13.82-17.44,25.16-32.75,47.49-38.8l2.24-.38.48-2.23c.62-3.4-1.71-6.57-7-10C90.31,122,111.28,96.4,111.28,96.4s8.77,20.47,28.54,20.47l1.44,0a43.67,43.67,0,0,0,6.58-.67l3.64-.71s-5.64-15.19,8-29.14A41.12,41.12,0,0,1,189.26,74a32.61,32.61,0,0,1,5.9.46c-6.8,8.86-11.72,23.55-3.87,32.61,6.8,7.78,23.39,8.17,23.39,19.78,0,4.91-4.62,10.66-12.93,15.82-25,15.63-49.76,36.38-60.06,64.15-12.86,34.67,1.65,57.67,22.39,70.88a29.31,29.31,0,0,1-15.94,6.69c-1.91.18-3.76.27-5.56.27-19.86,0-30.14-9.27-30.14-9.27a52.41,52.41,0,0,0,12,24.7c9.61,11,22.12,17.45,41.26,17.72,0,0,.61,8.82-7.86,16.44-5.43,4.82-17.93,6.39-17.93,6.39s23.45,4.71,26,39.1c1.41,18.63,6.15,25.1,6.15,25.1Z"/><path d="M50.58,183.74a23.48,23.48,0,0,0,7.62-1.22C65,180.28,69.37,174.88,74,169.28c4.68-5.75,10-12.22,19.09-17.05l9.41-5-8.74-6.09a30.76,30.76,0,0,0-16.14-4.85c-7.28,0-14,2.95-19.6,8.61-13.55,13.76-25.7,14.87-26.15,14.89l-9.47.55L26.24,169C30.15,177.51,40.39,183.74,50.58,183.74Zm12.05-34.28c5.05-5.16,10.36-6.7,14.94-6.7A23.76,23.76,0,0,1,90,146.48c-19,10.09-23,26.26-33.85,29.9a16.86,16.86,0,0,1-5.52.91c-8,0-15.73-5.14-18.38-11C32.2,166.24,46.86,165.35,62.63,149.46Z"/><path d="M93.3,259.06c-1-24.43,5.3-44.25,15.19-60.58-5.52,17-4.76,37.85,14,57.28,0,0-37.33-44.43,14.86-90,20.88-17.34,43.72-28,55.47-35.62-42.48,13.77-63.22-1.4-63.22-1.4,13.55,11.69,31.12,11.49,42,9.79-2.95,1.44-6,2.94-9.33,4.69-35.86,19.36-68,51.18-73.55,95.23v-.34C80.42,281.39,61.9,292.5,61.9,292.5c14.73-7.23,24-26.4,26.28-33.32,2.46,38,21.12,64.42,43,89.83a81.68,81.68,0,0,1,15.33,26s-2.22-14.5-12.05-26.31C114.09,324.37,94.73,294.07,93.3,259.06Z"/><path d="M259.85,169.92v8.74c3-3.66,8.89-2.91,8.89-2.91v12.6s-.2,6.19-2.42,8.88H279c-2.18-2.67-2.4-8.88-2.4-8.88v-12.6s5.86-.75,8.87,2.91v-8.74H259.85Z"/><path d="M254.39,118.1a20.44,20.44,0,0,0,6.47,3.79l1.59.72v-8.23l-14.9-6.23S247.69,112.93,254.39,118.1Z"/><path d="M289.83,118.1c6.74-5.17,6.86-9.95,6.86-9.95l-14.9,6.23v8.23l1.57-.72C283.46,121.82,285.78,121.3,289.83,118.1Z"/><path d="M316.67,84.59c0-12.48-21.15-23.71-44.49-23.71H272c-23.34,0-44.49,11.23-44.49,23.71l.47,3.07,9.32,53.18-9.36,5.4L203.75,160.3h.08s-5.46,2.77-8,4.49c-9.22,6.37-11.18,15.65-5.82,19.5,1.32-7.57,7.35-15.5,18.62-15.5,8.12,0,14.31,4.17,19.32,10.42a50.22,50.22,0,0,1,3.64,5.08c1.41,2.28,2.81,4.28,4.22,6.22H173.44c4.58,9.17,8.93,18.87,8.93,29.41V357.14c0,33.21,25.71,49.07,53.52,49.07,21.49,0,24.38-1,36.25,10.76,11.8-11.75,14.69-10.76,36.21-10.76,27.82,0,53.49-15.86,53.49-49.07V219.92c0-10.54,4.35-20.24,9-29.41h-62.4c1.38-1.92,2.79-3.94,4.19-6.22a57.28,57.28,0,0,1,3.62-5.08c5.05-6.27,11.22-10.42,19.34-10.42,11.28,0,17.28,7.91,18.62,15.5,5.36-3.85,3.42-13.13-5.86-19.5-2.48-1.72-7.94-4.49-7.94-4.49h.09l-24.23-14.06-9.32-5.4,9.32-53.18Zm-80,6.19,32.77,11V153l-24.12-12.64Zm6.78,108.65a43.67,43.67,0,0,0,15.65,10.44,20.11,20.11,0,0,0,.92,13.15c2,4.24,5.55,7.52,10.7,9.71a20.17,20.17,0,0,0,13.17,16.66c-4.05,4.07-8,7.89-9.6,9.45l-37.56-.59a6.62,6.62,0,0,1-2.95-2.73,3.67,3.67,0,0,1-.26-.48l6.12,1a2.75,2.75,0,0,0,.39,0,2.42,2.42,0,0,0,.39-4.82l-7.53-1.17,8.36-28.7-7.92-16.57-12.7,13.35L219.91,248l-8.53-1.34a2.44,2.44,0,0,0-2.81,2,2.47,2.47,0,0,0,2,2.79l3.58.54c-1.28.73-2.12,1.3-2.22,1.38l-.73.5-.21.89c-2.07,8.38,2.63,16.33,7.7,19.89l-.19,1.05a4.76,4.76,0,0,0,.86,3.6,4.7,4.7,0,0,0,3.13,1.94,5.59,5.59,0,0,0,.8.06,4.83,4.83,0,0,0,4.66-3.72,42,42,0,0,0,4.8.26h1l49.28,8.84.83-.54c3.93-2.74,18.89-13.58,23.8-17.16a20.52,20.52,0,0,0,4.68,3.08A19.91,19.91,0,0,0,317,292H191.39v-72c0-7-2-14-4.48-20.46H243.5Zm60.9,65.9c-5,3.64-17.81,12.95-22.45,16.18l-44.78-8,.3-1.19a39.23,39.23,0,0,0,1.23-9.16l37.63.6.71-.72c.57-.57,12.5-12,18.59-18.61a22.9,22.9,0,0,0,5.61,5A21.56,21.56,0,0,0,304.4,265.33Zm-75-7.7a11.53,11.53,0,0,0,4.3,4.51,52.11,52.11,0,0,1-.79,8.11c-.13.62-.29,1.21-.47,1.8-.11.36-.21.66-.29.91a29.13,29.13,0,0,1-9-1.4c-3.52-1.29-8.77-7.7-7.55-14.76,1.53-.93,5-2.9,8.35-2.9C226.48,253.88,228.21,255.08,229.43,257.63Zm-4.66-8.88.76-28.66,6.47-6.82,4.07,8.45-8,27.51ZM304,397.33c-2.44,0-4.7,0-6.74.12L302.59,381c.83-2.29-3.38-5.22-5.11-7.79a139.18,139.18,0,0,0,12.7,6.65C309.83,380.36,304,397.33,304,397.33Zm16.73-18.73-3.48,18c-2.22.31-4.58.47-7,.57l3.66-17.36c1.1-5.15-12.84-6.75-19.72-16.89-3.36,3.77-9.69,4.88-16,4.88A82.18,82.18,0,0,1,263,366.22a16.86,16.86,0,0,0-2.59-.24,5.54,5.54,0,0,0-5.17,2.77l-1,1.7-19-4.45-4.73,7.77a2.69,2.69,0,0,0,.37,3.5l1.28,1.39c-.87,2.75-4.82,6.9-4.82,6.9l-2.83-3.5c-2.24-2.49-1.87-7,.47-11.23l7.53-12.64,16.08,2.31-2.51-5.67c-3.35-7.48,1.75-17,2.3-22.49-.18,1.66-1.71,2-3.5,2-1.62,0-3.44-.3-4.64-.3a2.08,2.08,0,0,0-1.1.2l-4.35,2.63-3.44-3a2.42,2.42,0,0,1,.47-2.95l7.95-8.86-9.4-10.9,13.17,6.57,4-4.84c1.1,1.08.63,3.89.63,3.89,4.11.1,15.63,6.43,16.24,21.19,0,.45,0,1,0,1.44l.31.49c.81,1.11,3,4,5.9,4.22l18.2,1.79H289c2,0,6-2.33,11-2.33a17,17,0,0,1,9.16,2.77,8.28,8.28,0,0,1,4.34-1.44c.2,0,.42,0,.63,0,8.16,0,11.54,7.33,15.92,13.41,3.29,4.63,7.69,11.51,7.69,11.51-1.63,1.92-3.14,3-5.66,3a12.82,12.82,0,0,1-2.34-.23c-8.75-1.6-10-19.48-15-20.89a2.81,2.81,0,0,0-.79-.1,2.74,2.74,0,0,0-2.33,1.41c2.28,6.09,1,8.56,3.4,13.25,1.84,3.48,5.09,6.35,6.44,7.71C321.48,374,321.11,376.62,320.72,378.6ZM223,361.53l.84,2.08C223.29,365.43,217,368,217,368l-1.37-2.95a9.8,9.8,0,0,1,3.26-11.73l10.22-6.19,10.83,2.28a9.45,9.45,0,0,0,1.85,6l-11.36-2.16-6.8,4.67C222.47,358.7,222.39,360.17,223,361.53Zm99.43,34.12,3.12-16.14c.16-.95.36-2.06.51-3a14.16,14.16,0,0,0,2.83.85,17.17,17.17,0,0,0,3.21.32,11.88,11.88,0,0,0,9.38-4.61l2.41-2.77-2-3c-.18-.3-4.5-7.1-7.83-11.75-.66-.91-1.29-1.82-1.92-2.81-3.78-5.62-8.53-12.68-18-12.68l-.86,0a13.84,13.84,0,0,0-4,.81,21.56,21.56,0,0,0-9.26-2.11,28.71,28.71,0,0,0-9.44,1.83c-.63.18-1.2.38-1.65.46l-17.77-1.74a4.62,4.62,0,0,1-1.83-1.52v-.08l3.85-1.53C272.12,323.44,259.82,315.61,253,313a7.12,7.12,0,0,0-2-3.57l-3.83-3.6-3.36,4-1.64,2-24.88-10.15,16.18,20.18-6.39,9.61c-2.34,2.47.25,4.94.25,4.94l6.59,4.51,6.84-2.53c.24,0,.45.06.67.08-.32,1-.75,5.08-1,6.21l-11.86-2.33-12.48,7a14.61,14.61,0,0,0-4.91,17.72l1.39,3,2,4.25,4.36-1.8a.4.4,0,0,0,.16-.08c-1.57,5-.93,9.71,1.87,12.82l2.65,3.32L227,393l3.87-4.13c1.14-1.13,4.82-5.23,6-8.75l.84-2.69-1.9-2.07-.3-.36,2.12-3.48,15.49,3.62,3.48.79,1.85-3,1-1.66c.18-.35.24-.41,1-.41a7.75,7.75,0,0,1,1.69.19,88.38,88.38,0,0,0,16,1.63c4.64,0,7.41-.18,10.73-1.27,0,0,8.32,9.38,8.61,9.75l-5.09,15.61-.23.95c-9.64.77-14.34,2.88-20,8.52-8.25-8.13-14.09-9-36.25-9-26.53,0-44.5-15.45-44.5-40.13V296.78H352.82l0,60.34C352.88,377.14,341.06,391.1,322.43,395.65Zm34.91-196.22c-2.46,6.48-4.52,13.5-4.52,20.47l0,45c-9.46-1.58-10.58-11.71-10.62-12.16l-.19-2.06-2-.18a14.46,14.46,0,0,1-9.14-4.35c-4.64-4.61-4.66-12.1-4.64-12.16-.06.38-5.11,7.4.75,15.07,2.46,3.24,6,5.22,10.65,6,1.08,5.62,5.29,13.55,15.22,14.76v22.05H324.92c-12.89-7.12-7.43-19.66-7.17-20.19l1.1-2.38-2.46-.93c-13.95-5.14-10.12-19-9.92-19.56l.57-2-1.89-.89c-11.52-5.29-9.95-19.59-9.81-20.18-3.54,2.85-4.82,8.68-2.38,14.38-1.32,1.5-3.09,3.32-5,5.3A15.55,15.55,0,0,1,275.64,231l0-1.68-1.57-.61c-4.66-1.72-7.86-4.29-9.42-7.74a15.09,15.09,0,0,1-.66-9.75,29.56,29.56,0,0,0,4,.62,39.66,39.66,0,0,0,4.11.22h.18a39.42,39.42,0,0,0,4.09-.22c7.43-.72,15.75-3.9,24.43-12.44h56.52Zm-43.52-45.51,11,6.38H325l2.77,1.59a32.63,32.63,0,0,0-15,8.88c-.14.13-.28.29-.42.43-.92,1-1.83,2-2.69,3.09l-.51.65c-.85,1.09-1.65,2.21-2.42,3.38a6,6,0,0,1-.41.58c-.91,1.36-1.79,2.82-2.66,4.31-7.86,13.45-20.4,21.48-31.55,21.5s-23.67-8.05-31.53-21.5c-.86-1.45-1.71-2.87-2.63-4.25-.18-.26-.34-.52-.51-.74-.77-1.12-1.54-2.21-2.34-3.24-.2-.28-.38-.5-.59-.75-.85-1-1.73-2.06-2.6-3a5.66,5.66,0,0,1-.49-.49,32.44,32.44,0,0,0-15-8.84l2.81-1.59h.12l11-6.38,11.34-6.45L272,163.85l.07-.06.08.06,30.28-16.38Zm-14.94-13.57L274.74,153V101.82l32.75-11ZM272.12,96.2,236.21,82.1c3.06-7.18,17.14-13.29,35.91-13.31S305,74.92,308,82.1Z"/></g></g></svg>