<svg width="1088" height="500" viewBox="0 0 1088 500" fill="none" xmlns="http://www.w3.org/2000/svg">
<rect x="588" width="500" height="100" rx="20" fill="#EEEDED"/>
<rect x="588" y="400" width="500" height="100" rx="20" fill="#EEEDED"/>
<rect x="688" y="200" width="400" height="100" rx="20" fill="#EEEDED"/>
<path fill-rule="evenodd" clip-rule="evenodd" d="M0 20C0 8.9543 8.95431 0 20 0H80C91.0457 0 100 8.95431 100 20V80C100 91.0457 108.954 100 120 100H180C191.046 100 200 108.954 200 120V180C200 191.046 208.954 200 220 200H280C291.046 200 300 191.046 300 180V120C300 108.954 308.954 100 320 100H380C391.046 100 400 91.0457 400 80V20C400 8.9543 408.954 0 420 0H480C491.046 0 500 8.95431 500 20V80C500 91.0457 491.046 100 480 100H446.056H420C408.954 100 400 108.954 400 120V180C400 191.046 408.954 200 420 200H450.556H480C491.046 200 500 208.954 500 220V480C500 491.046 491.046 500 480 500H420C408.954 500 400 491.046 400 480V300V223.454V220C400 208.954 391.046 200 380 200H320C308.954 200 300 208.954 300 220V233.054V280C300 291.046 291.046 300 280 300H220C208.954 300 200 291.046 200 280V229.743V220C200 208.954 191.046 200 180 200H120C108.954 200 100 208.954 100 220V222.543V300V480C100 491.046 91.0457 500 80 500H20C8.9543 500 0 491.046 0 480V220C0 208.954 8.95431 200 20 200H51.391H80C91.0457 200 100 191.046 100 180V120C100 108.954 91.0457 100 80 100H49.591H20C8.9543 100 0 91.0457 0 80V20Z" fill="#EEEDED"/>
</svg>
