<svg width="409" height="409" viewBox="0 0 409 409" fill="none" xmlns="http://www.w3.org/2000/svg">
<path fill-rule="evenodd" clip-rule="evenodd" d="M0 20C0 8.9543 8.95431 0 20 0H61.6176C72.6633 0 81.6176 8.9543 81.6176 20V61.6177C81.6176 72.6634 90.5719 81.6176 101.618 81.6176H143.235C154.281 81.6176 163.235 90.572 163.235 101.618V143.235C163.235 154.281 172.19 163.235 183.235 163.235H224.853C235.899 163.235 244.853 154.281 244.853 143.235V101.618C244.853 90.5719 253.807 81.6176 264.853 81.6176H306.471C317.516 81.6176 326.471 72.6633 326.471 61.6176V20C326.471 8.9543 335.425 0 346.471 0H388.088C399.134 0 408.088 8.9543 408.088 20V61.6177C408.088 72.6333 399.183 81.5689 388.178 81.6174H346.47C335.425 81.6174 326.47 90.5717 326.47 101.617V143.235C326.47 154.281 335.425 163.235 346.47 163.235H371.058L371.144 163.235H388.088C399.134 163.235 408.088 172.19 408.088 183.235V388.088C408.088 399.134 399.134 408.088 388.088 408.088H346.471C335.425 408.088 326.471 399.134 326.471 388.088V186.69C326.471 186.658 326.471 186.627 326.47 186.596V183.235C326.47 172.19 317.516 163.235 306.47 163.235H264.853C253.807 163.235 244.853 172.19 244.853 183.235V224.939C244.806 235.945 235.87 244.853 224.853 244.853H183.235C172.19 244.853 163.235 235.899 163.235 224.853V190.773L163.235 190.702V183.235C163.235 172.19 154.281 163.235 143.235 163.235H101.618C90.5718 163.235 81.6175 172.19 81.6175 183.235V244.853H81.6176V388.088C81.6176 399.134 72.6633 408.088 61.6176 408.088H20C8.9543 408.088 0 399.134 0 388.088V183.235C0 172.19 8.9543 163.235 20 163.235H38.1557L38.2423 163.235H61.6176C72.6633 163.235 81.6176 154.281 81.6176 143.235V101.617C81.6176 90.5718 72.6633 81.6174 61.6176 81.6174H19.91C8.90569 81.5689 0 72.6333 0 61.6176V20Z" fill="#EEEDED"/>
</svg>
